# xmcd CD database file
#
# Track frame offsets:
#	150
#	17337
#	31453
#	59794
#	76171
#	91590
#	107875
#	133272
#	154620
#	184437
#	198310
#	209782
#
# Disc length: 3007 seconds
#
# Revision: 0
# Processed by: cddbd v1.5.1PL2 Copyright (c) Steve Scherf et al.
# Submitted via: CDex 1.51
#
DISCID=a50bbd0c
DTITLE=Eddie Condon - Tiger Rag And All That Jazz
DYEAR=2005
DGENRE=Jazz
TTITLE0=Tiger Rag
TTITLE1=Sensation Rag
TTITLE2=Livery Stable Blues
TTITLE3=Lazy Daddy
TTITLE4=Bluin' The Blues
TTITLE5=Ostrich Walk
TTITLE6=Reisenweber Rag
TTITLE7=Lazy River
TTITLE8=Nasty Blues
TTITLE9=Satanic Blues
TTITLE10=Clarinet Marmalade
TTITLE11=Skeleton Jungle
EXTD=YEAR: 2005
EXTT0=
EXTT1=
EXTT2=
EXTT3=
EXTT4=
EXTT5=
EXTT6=
EXTT7=
EXTT8=
EXTT9=
EXTT10=
EXTT11=
PLAYORDER=
